<svg xmlns="http://www.w3.org/2000/svg" xmlns:xlink="http://www.w3.org/1999/xlink" width="96" height="96" viewBox="0 0 96 96"><defs><style>.a,.e,.f{fill:#fff;}.a{stroke:#707070;}.b{clip-path:url(#a);}.c{fill:#6851fc;}.d{fill:#8a71fc;}.f{opacity:0.997;}.g{fill:#33333d;}</style><clipPath id="a"><rect class="a" width="96" height="96" rx="24" transform="translate(553.311 9737.311)"/></clipPath></defs><g class="b" transform="translate(-553.311 -9737.311)"><g transform="translate(518.93 9720.941)"><g transform="translate(0 0)"><ellipse class="c" cx="35.399" cy="35.059" rx="35.399" ry="35.059" transform="translate(0 0)"/></g><g transform="translate(91.775 0)"><ellipse class="c" cx="35.399" cy="35.059" rx="35.399" ry="35.059" transform="translate(0 0)"/></g><ellipse class="c" cx="58.998" cy="58.431" rx="58.998" ry="58.431" transform="translate(23.462 11.687)"/><path class="d" d="M90.5,169.157a14.525,14.525,0,0,1-11.485,5.6,14.274,14.274,0,0,1-11.355-5.6h-.125a21.537,21.537,0,0,0-23.366-4.785,21.18,21.18,0,0,0-13.3,19.619v12.715a21.179,21.179,0,0,0,13.3,19.619,21.536,21.536,0,0,0,23.365-4.784h.124a14.31,14.31,0,0,1,22.724,0h.131c.046.046.084.1.13.142a21.537,21.537,0,0,0,23.315,4.6,21.177,21.177,0,0,0,13.2-19.58V183.992a21.2,21.2,0,0,0-12.92-19.454,10.665,10.665,0,0,0-1.14-3.679,1.424,1.424,0,0,0-2.228-.374c-.682.635-1.6,1.485-2.655,2.47-.551-.062-1.11-.1-1.672-.124.017-.258.036-.519.035-.775a10.312,10.312,0,0,0-1.616-5.593,1.426,1.426,0,0,0-2.251-.212c-2.187,2.351-8.281,8.685-12.214,12.913" transform="translate(3.264 -132.417)"/><path class="e" d="M23.6,23.369A23.513,23.513,0,0,1,0,0H47.195A23.513,23.513,0,0,1,23.6,23.369Z" transform="translate(58.888 73.486)"/><g transform="translate(44.762 39.73)"><g transform="translate(47.199 0)"><path class="f" d="M0,28.677V14.023A14.023,14.023,0,0,1,8.742,1.066a14.26,14.26,0,0,1,15.43,3.042,13.863,13.863,0,0,1,4.147,9.916v5.721A94.286,94.286,0,0,0,0,28.677Z" transform="translate(0 0.001)"/><path class="g" d="M.605,19.2h0A6.9,6.9,0,0,1,0,16.36V7.011A7.035,7.035,0,0,1,.059,6.08a4.541,4.541,0,0,0,5.266-.8A4.433,4.433,0,0,0,6.139.06,7.241,7.241,0,0,1,7.078,0a7.054,7.054,0,0,1,7.08,7.011V14.63A94.471,94.471,0,0,0,.606,19.2Z" transform="translate(4.72 7.015)"/></g><g transform="translate(0 0.002)"><path class="f" d="M14.159,28.677A14.091,14.091,0,0,1,0,14.654V0A94.284,94.284,0,0,0,28.319,8.93V14.65A14.091,14.091,0,0,1,14.159,28.677Z" transform="translate(28.319 28.677) rotate(180)"/><path class="g" d="M13.552,19.206h0A94.626,94.626,0,0,0,0,14.63V7.012A7.034,7.034,0,0,1,.06,6.08a4.541,4.541,0,0,0,5.263-.806A4.433,4.433,0,0,0,6.139.062,7.242,7.242,0,0,1,7.079,0a7.054,7.054,0,0,1,7.08,7.011v9.35a6.9,6.9,0,0,1-.606,2.843Z" transform="translate(9.44 7.012)"/></g></g></g></g></svg>