
<svg xmlns="http://www.w3.org/2000/svg" width="132" height="132" viewBox="0 0 132 132">
  <g fill="none" fill-rule="evenodd">
  <path id="Path-2" d="M70.5745455,48.8721951 C71.6716883,47.8097561 76.8498701,42.9482927 78.5703896,42.9482927 C80.1412987,42.9482927 80.9309091,44.0107317 80.1412987,46.4414634 L80.4571429,46.7473171 C95.6758442,33.9819512 105.558442,20.3070732 105.558442,15.2926829 C105.558442,12.7090244 103.82961,11.6465854 101.327792,12.2582927 C98.5018182,13.014878 80.6150649,13.6185366 45.4732468,53.4278049 C34.4851948,65.8873171 26.4893506,82.7495122 26.4893506,94.2995122 C26.4893506,105.084878 31.8171429,111.467561 43.1127273,111.467561 C62.8862338,111.467561 97.4046753,86.5163415 112.307532,73.7831707 C112.772987,81.5341463 110.271169,83.6590244 104.303377,89.1321951 C73.7080519,117.697317 47.6675325,126.808537 32.9142857,126.808537 C15.4597403,126.808537 2.95064935,116.345122 2.95064935,98.855122 C2.95064935,76.5197561 22.2503896,52.5182927 38.4083117,37.7809756 C51.707013,25.4743902 84.6961039,1.16707317 103.364156,1.16707317 C112.772987,1.16707317 118.898701,5.99634146 119.364156,15.5985366 C120.461299,36.1068293 79.9833766,75.0065854 60.2181818,77.8880488 C58.011223,78.2672121 55.7449869,77.6680683 54.0431717,76.2555098 C52.3413564,74.8429512 51.3833202,72.7658507 51.4327273,70.5958537 C51.4327273,66.0402439 55.6633766,61.4846341 58.9631169,58.7480488 L70.5745455,48.8721951 Z M128.166234,7.13926829 L119.164675,7.13926829 C115.981299,2.5595122 110.545455,0 103.364156,0 C96.6150649,0 88.3033766,2.87341463 79.7423377,7.13926829 L5.76831169,7.13926829 L5.76831169,77.1636585 C2.28571429,84.6409756 0,92.5609756 0,100.553415 C0,107.797317 2.0612987,114.123659 5.74337662,119.113902 L12.6171429,125.681707 C18.0197403,129.327805 24.9433766,131.364146 32.9142857,131.364146 C36.6545455,131.364146 45.2987013,130.68 57.6997403,125.681707 L128.166234,125.681707 L128.166234,7.13926829 Z" fill="#047481"></path>
  </g>
</svg>
