
<svg xmlns="http://www.w3.org/2000/svg" width="120" height="27" viewBox="0 0 120 27">
  <g fill="none" fill-rule="evenodd">
      <path fill="#00ACC1" d="M24.663 18.092c-.735 2.335-4.942 3.002-6.035 3.127-1.098.125-2.019.11-2.215.062-.465-.102-.87-.229-.976-.555-.631-1.892 3.735-5.876 3.924-6.107-1.45.422-3.271 1.69-4.044 2.332-3.238 2.703-3.02 4.078-3.878 3.949-.36-.026-.84-.24-.89-.602-1.814 1.094-2.979 1.51-4.03 1.265-1.022-.246-1.383-1.039-1.314-2.045.183-2.638 3.34-6.672 5.686-6.019.274.054.503.245.659.5.874 1.386-4.998 5.09-5.214 5.214l-.027.382c-.046.66.248.924.696.956 1.014.07 2.672-.62 4.01-1.53.927-2.215 2.517-5.54 3.85-5.066.557.198.025.664-.31.99-.756.856-1.532 2.059-2.019 3.07 2.504-2.152 5.024-3.79 6.791-4.32.633-.19 1.077-.119 1.438.185 1.548 1.357-2.815 1.973-4.068 5.949-.014.144-.462.966 1.874.65 1.946-.263 3.714-1.137 4.316-1.64 2.019-1.683-.885-1.578-1.423-1.952-1.262-.878 1.035-2.687 5.093-3.585V0H0v26.718h26.557V14.413c-1.963.14-3.745 1.033-4.245 1.418-.533.412 2.89.551 2.35 2.261"/>
      <path fill="#00ACC1" d="M10.321 14.714l-.103-.007c-.483-.034-2.238.785-3.284 2.874a29.12 29.12 0 0 0 2.148-1.488c.881-.706 1.193-1.207 1.24-1.379"/>
      <path fill="#FFF" d="M10.218 14.707l.103.007c-.046.172-.358.673-1.239 1.379a29.12 29.12 0 0 1-2.148 1.488c1.046-2.089 2.8-2.908 3.284-2.874m11.246 2.18c.538.374 3.442.269 1.423 1.952-.602.503-2.37 1.377-4.316 1.64-2.336.316-1.888-.506-1.874-.65 1.253-3.976 5.616-4.592 4.068-5.949-.36-.304-.805-.374-1.437-.185-1.769.53-4.288 2.168-6.792 4.32.487-1.011 1.262-2.215 2.019-3.07.335-.326.867-.792.311-.99-1.334-.475-2.924 2.85-3.85 5.066-1.339.91-2.997 1.6-4.01 1.53-.449-.032-.743-.297-.697-.956l.026-.382c.217-.124 6.09-3.828 5.215-5.215-.156-.255-.385-.445-.66-.499-2.346-.653-5.502 3.38-5.685 6.019-.07 1.006.292 1.799 1.314 2.045 1.05.244 2.216-.17 4.03-1.265.05.363.53.576.89.602.857.13.64-1.246 3.878-3.948.773-.644 2.594-1.911 4.044-2.333-.189.23-4.555 4.215-3.924 6.108.107.325.511.452.976.554.196.048 1.117.063 2.215-.062 1.093-.125 5.3-.792 6.035-3.127.539-1.71-2.884-1.85-2.351-2.26.5-.386 2.282-1.279 4.245-1.418v-1.112c-4.058.898-6.355 2.707-5.093 3.584"/>
      <path fill="#494F51" d="M35.578 26.606c-.305-.097-.543-.22-.716-.366l.25-.44a2.1 2.1 0 0 0 .65.334c.26.086.532.13.813.13.375 0 .653-.06.832-.178a.562.562 0 0 0 .27-.5.451.451 0 0 0-.148-.357.981.981 0 0 0-.375-.197 5.336 5.336 0 0 0-.602-.13 6.822 6.822 0 0 1-.805-.192 1.173 1.173 0 0 1-.52-.335c-.145-.157-.216-.375-.216-.653 0-.346.144-.629.43-.85.287-.22.685-.33 1.196-.33.267 0 .533.036.798.107.266.07.485.164.657.28l-.243.447c-.338-.236-.743-.354-1.212-.354-.355 0-.621.063-.801.19a.58.58 0 0 0-.27.494c0 .158.05.284.153.378a.924.924 0 0 0 .38.209c.15.044.358.09.625.137.328.063.591.127.79.19.197.062.366.17.508.322.14.152.211.362.211.629 0 .362-.15.65-.45.862-.3.212-.715.318-1.247.318-.333 0-.653-.048-.958-.145M47.98 26.055c.232-.134.413-.324.543-.57.13-.247.196-.528.196-.842 0-.315-.066-.595-.196-.842a1.398 1.398 0 0 0-.543-.57 1.543 1.543 0 0 0-.785-.201c-.293 0-.554.067-.787.2a1.42 1.42 0 0 0-.547.571c-.133.247-.2.527-.2.842 0 .314.067.595.2.842.132.246.315.436.547.57.233.134.494.2.787.2.29 0 .552-.066.785-.2m-1.857.424a1.96 1.96 0 0 1-.751-.751 2.149 2.149 0 0 1-.274-1.085c0-.404.091-.766.274-1.086.182-.32.432-.57.751-.747a2.151 2.151 0 0 1 1.072-.268c.395 0 .752.09 1.07.268.319.178.567.427.748.747.179.32.268.682.268 1.086s-.09.765-.268 1.085c-.181.32-.43.57-.747.751a2.128 2.128 0 0 1-1.071.272c-.397 0-.754-.09-1.072-.272M56.671 26.712h.555v-5.838h-.555zM68.736 22.574v4.138h-.531v-.755a1.535 1.535 0 0 1-.603.586 1.804 1.804 0 0 1-.876.208c-.537 0-.96-.15-1.27-.452-.31-.302-.465-.744-.465-1.326v-2.399h.555v2.344c0 .436.106.766.32.991.214.226.519.339.915.339.432 0 .774-.133 1.025-.398.25-.264.375-.633.375-1.105v-2.17h.555zM78.714 26.46a1.054 1.054 0 0 1-.387.216 1.57 1.57 0 0 1-.481.075c-.386 0-.683-.105-.892-.314-.208-.21-.312-.507-.312-.89v-2.501h-.736v-.472h.736v-.905h.555v.905h1.25v.472h-1.25v2.47c0 .247.061.434.184.562.122.129.298.193.528.193.114 0 .224-.018.332-.055a.81.81 0 0 0 .277-.157l.196.401zM85.977 26.712h.555v-4.138h-.555v4.138zm-.007-5.16a.388.388 0 0 1 0-.56.39.39 0 0 1 .289-.118c.114 0 .211.039.29.115a.398.398 0 0 1 0 .563.394.394 0 0 1-.29.117.39.39 0 0 1-.29-.118zM96.803 26.055c.233-.134.413-.324.544-.57.13-.247.196-.528.196-.842 0-.315-.066-.595-.196-.842a1.398 1.398 0 0 0-.544-.57 1.543 1.543 0 0 0-.785-.201c-.292 0-.554.067-.786.2a1.42 1.42 0 0 0-.548.571c-.132.247-.199.527-.199.842 0 .314.067.595.2.842.132.246.315.436.547.57.232.134.494.2.786.2.292 0 .553-.066.785-.2m-1.856.424c-.319-.18-.57-.43-.752-.751a2.153 2.153 0 0 1-.273-1.085c0-.404.091-.766.273-1.086.183-.32.433-.57.752-.747a2.151 2.151 0 0 1 1.071-.268c.396 0 .752.09 1.071.268.318.178.567.427.747.747.18.32.269.682.269 1.086s-.09.765-.269 1.085c-.18.32-.429.57-.747.751a2.128 2.128 0 0 1-1.07.272c-.398 0-.754-.09-1.072-.272M108.822 22.995c.305.301.457.74.457 1.317v2.4h-.554v-2.344c0-.43-.108-.759-.321-.984-.214-.225-.52-.338-.916-.338-.442 0-.793.132-1.05.397-.259.265-.388.63-.388 1.098v2.17h-.555v-4.137h.531v.763c.152-.252.361-.447.63-.586.268-.139.58-.209.934-.209.517 0 .927.151 1.232.453M117.189 26.606c-.305-.097-.544-.22-.716-.366l.25-.44a2.1 2.1 0 0 0 .65.334c.26.086.532.13.813.13.375 0 .653-.06.832-.178a.562.562 0 0 0 .27-.5.451.451 0 0 0-.148-.357.981.981 0 0 0-.376-.197 5.336 5.336 0 0 0-.602-.13 6.822 6.822 0 0 1-.805-.192 1.173 1.173 0 0 1-.52-.335c-.144-.157-.215-.375-.215-.653 0-.346.144-.629.43-.85.287-.22.685-.33 1.196-.33.266 0 .532.036.797.107.267.07.486.164.658.28l-.243.447c-.338-.236-.743-.354-1.212-.354-.355 0-.622.063-.801.19a.58.58 0 0 0-.27.494c0 .158.05.284.153.378a.924.924 0 0 0 .379.209c.15.044.36.09.626.137.328.063.591.127.79.19.197.062.366.17.507.322.141.152.212.362.212.629 0 .362-.15.65-.45.862-.3.212-.715.318-1.248.318-.332 0-.652-.048-.957-.145M38.433 8.146c-.664.571-1.067 1.332-1.211 2.281h7.27c-.13-.933-.52-1.69-1.177-2.269-.656-.579-1.471-.868-2.446-.868-.96 0-1.772.286-2.436.856m8.865 4.284H37.246c.175.95.635 1.702 1.38 2.257.743.555 1.666.833 2.77.833 1.407 0 2.567-.467 3.478-1.4l1.608 1.859a5.41 5.41 0 0 1-2.183 1.568c-.88.355-1.872.532-2.975.532-1.408 0-2.647-.282-3.719-.845-1.07-.563-1.899-1.348-2.483-2.354-.583-1.005-.876-2.144-.876-3.415 0-1.255.284-2.386.852-3.391a6.06 6.06 0 0 1 2.363-2.354c1.008-.563 2.144-.844 3.408-.844 1.246 0 2.362.278 3.345.832a5.886 5.886 0 0 1 2.304 2.342c.552 1.005.827 2.168.827 3.488 0 .209-.016.506-.047.892M49.504 17.91h3V0h-3zM54.998 17.91h3V5.02h-3zM60.492 17.91h2.999V5.02h-3zM77.141 6.3c.975.95 1.463 2.357 1.463 4.224v7.386h-2.999v-7c0-1.127-.263-1.975-.79-2.546-.53-.571-1.281-.857-2.256-.857-1.104 0-1.975.334-2.616 1.002-.639.667-.959 1.629-.959 2.884v6.517h-3V5.02h2.856v1.666a4.692 4.692 0 0 1 1.871-1.352c.752-.305 1.6-.458 2.544-.458 1.615 0 2.91.474 3.886 1.424M90.312 14.386c.719-.74 1.079-1.714 1.079-2.921 0-1.207-.36-2.18-1.079-2.92-.72-.74-1.632-1.11-2.736-1.11-1.103 0-2.01.37-2.722 1.11-.713.74-1.068 1.713-1.068 2.92 0 1.207.355 2.18 1.068 2.92.711.741 1.619 1.111 2.722 1.111 1.104 0 2.016-.37 2.736-1.11m-6.238 2.848a6.14 6.14 0 0 1-2.435-2.354c-.584-1.006-.876-2.144-.876-3.415s.292-2.406.876-3.404a6.17 6.17 0 0 1 2.435-2.34c1.04-.564 2.207-.845 3.502-.845 1.312 0 2.487.281 3.527.844a6.166 6.166 0 0 1 2.435 2.341c.584.998.876 2.133.876 3.404s-.292 2.41-.876 3.415a6.136 6.136 0 0 1-2.435 2.354c-1.04.563-2.215.844-3.527.844-1.295 0-2.462-.28-3.502-.844M108.209 5.02l-5.495 12.89H99.62L94.125 5.02h3.12l3.982 9.559 4.103-9.558zM115.61 15.35c.583-.345.995-.84 1.236-1.483V12.37h-3.096c-1.727 0-2.59.572-2.59 1.714 0 .547.216.981.647 1.303.432.322 1.032.483 1.8.483.751 0 1.419-.173 2.003-.52m2.734-9.123c1 .91 1.5 2.282 1.5 4.116v7.554h-2.83V16.33c-.37.563-.893.993-1.572 1.291-.68.297-1.5.446-2.459.446-.96 0-1.799-.165-2.519-.494-.72-.33-1.276-.789-1.668-1.376a3.51 3.51 0 0 1-.587-1.992c0-1.158.427-2.087 1.283-2.787.855-.7 2.203-1.05 4.043-1.05h3.31v-.193c0-.901-.268-1.593-.803-2.076-.536-.483-1.332-.724-2.387-.724-.72 0-1.427.112-2.123.338-.696.225-1.284.539-1.763.941l-1.176-2.196c.671-.515 1.479-.91 2.423-1.183.943-.273 1.943-.41 2.999-.41 1.886 0 3.33.454 4.33 1.363M57.997 1.509c0-.833-.671-1.51-1.5-1.51-.828 0-1.5.677-1.5 1.51s.672 1.509 1.5 1.509c.829 0 1.5-.676 1.5-1.51M63.49 1.509c0-.833-.67-1.51-1.499-1.51-.828 0-1.5.677-1.5 1.51s.672 1.509 1.5 1.509 1.5-.676 1.5-1.51"/>
  </g>
</svg>
